<svg width="112" height="13" viewBox="0 0 112 13" fill="none" xmlns="http://www.w3.org/2000/svg">
<mask id="mask0_16001_298" style="mask-type:luminance" maskUnits="userSpaceOnUse" x="0" y="0" width="112" height="13">
<path d="M112 0.310059H0V12.3101H112V0.310059Z" fill="white"/>
</mask>
<g mask="url(#mask0_16001_298)">
<path d="M0.127222 0.643733C0.391414 0.183766 1.00424 0.306335 1.41142 0.493486C4.3652 1.71919 7.30809 2.97652 10.2469 4.23517C10.9959 4.4434 10.6554 5.31985 10.6554 5.8668C9.03488 5.88393 7.41295 5.8668 5.79102 5.87998C5.34299 5.86153 4.81052 5.95642 4.47278 5.59398C3.13956 4.36828 1.85265 3.08986 0.549386 1.83912C0.242977 1.53335 -0.206423 1.08261 0.13267 0.643733H0.127222ZM19.4337 1.14192C20.1473 0.863831 20.8296 0.482942 21.5868 0.323469C22.0607 0.22594 22.2677 0.703041 22.4992 0.996945C21.4969 2.4322 20.0561 3.50107 18.8359 4.7584C18.3061 5.21309 17.8404 5.96696 17.0315 5.87866C15.2815 5.87866 13.5316 5.86812 11.7789 5.87866C11.6673 5.37125 11.3895 4.56993 12.0377 4.29711C14.489 3.22693 16.9661 2.18838 19.4337 1.14587V1.14192ZM33.9303 1.35675C34.0665 1.03517 34.4437 1.15642 34.7174 1.12347C37.1224 1.13797 39.526 1.12347 41.9351 1.13269C43.4331 1.15642 44.8058 2.31886 44.9978 3.75938C45.2906 5.41869 43.8811 7.13995 42.138 7.21507C40.0843 7.25724 38.028 7.18739 35.9757 7.24143C35.5754 8.29579 36.0384 9.53599 35.7415 10.6405C35.2063 11.0359 34.5949 11.4378 33.8949 11.4668C33.8949 9.63879 33.9139 7.80947 33.9044 5.98146C33.8799 5.72973 33.9412 5.30535 34.313 5.37388C36.7956 5.34225 39.2809 5.38838 41.7635 5.35939C42.3736 5.39233 43.0286 4.94686 43.049 4.32611C43.1852 3.60255 42.5043 2.96334 41.7744 2.98838C39.1869 2.94225 36.5994 3.03187 34.0256 2.95016C33.8268 2.4467 33.8894 1.88393 33.9357 1.35675H33.9303ZM56.0694 11.4576C56.0571 8.01507 56.0163 4.56993 56.0912 1.12874C59.8048 1.14192 63.5226 1.10106 67.2363 1.14851C67.0361 1.79036 66.7828 2.52578 66.2231 2.9383C63.4845 3.03583 60.7309 2.95543 57.9868 2.9752C57.9718 3.76597 57.9732 4.57256 57.9773 5.37256C60.6573 5.36466 63.3383 5.36466 66.0202 5.37256C66.0583 5.98541 66.0597 6.60222 66.0392 7.2177C63.351 7.24406 60.6655 7.2177 57.9773 7.23088C57.9773 8.02166 57.9773 8.81243 57.9773 9.60321C60.5647 9.59398 63.1427 9.60321 65.7247 9.60321C66.6779 9.54785 66.8386 10.7024 67.3003 11.285C67.0542 11.4281 66.7701 11.4982 66.4832 11.4866C63.0119 11.4721 59.5379 11.5051 56.068 11.4695L56.0694 11.4576ZM78.2534 1.20518C78.5258 0.931048 78.7872 1.32907 79.031 1.43451C81.9249 3.59332 84.8351 5.72841 87.7221 7.8925C87.7643 5.9696 87.6676 4.04275 87.7643 2.12512C88.1974 1.58212 88.9069 1.31985 89.5524 1.07998C89.6981 1.47537 89.6682 1.89975 89.6722 2.31227C89.645 5.26449 89.6913 8.22067 89.6505 11.1729C89.7553 11.6382 89.1752 11.4972 88.9695 11.2823C86.0212 9.09579 83.0851 6.89217 80.1286 4.71622C80.0919 6.6523 80.194 8.59497 80.085 10.5271C79.6574 11.0543 78.9098 11.3825 78.2153 11.4945C78.1853 8.43154 78.2153 5.36861 78.1962 2.30436C78.1839 1.93619 78.203 1.56766 78.2534 1.20255V1.20518ZM100.791 5.08393C101.328 2.80782 103.628 1.07207 106.041 1.13665C107.948 1.17355 109.848 1.06548 111.745 1.18937C111.726 1.85757 111.288 2.43747 110.872 2.94093C109.142 3.09118 107.392 2.88953 105.661 3.03055C104.242 3.19925 102.977 4.25494 102.665 5.61243C102.159 7.45757 103.726 9.48459 105.682 9.59266C107.153 9.61902 108.625 9.59266 110.097 9.59266C110.097 8.80189 110.097 8.01902 110.097 7.2322C108.998 7.21639 107.896 7.25856 106.797 7.22166C106.325 7.27174 106.167 6.7406 105.947 6.44011C105.811 6.11457 105.452 5.78113 105.634 5.40947C107.421 5.31589 109.216 5.40947 111.006 5.36597C111.331 5.40815 111.753 5.26449 111.994 5.55181C112.044 7.51029 111.994 9.47273 112.012 11.4326C110.662 11.5235 109.308 11.4629 107.959 11.4774C106.553 11.4576 105.064 11.6395 103.766 10.9897C101.497 10.0329 100.136 7.40485 100.798 5.0813L100.791 5.08393ZM4.43193 7.03583C4.78056 6.66416 5.32937 6.76169 5.79375 6.74324C7.42793 6.76828 9.05394 6.72215 10.6827 6.77355C10.6977 7.27569 10.9796 8.06647 10.3518 8.32084C7.80243 9.42924 5.23949 10.506 2.67791 11.5907C2.00926 11.8543 1.35967 12.2181 0.635181 12.3103C0.270214 12.2036 -0.0552604 11.8675 0.0182778 11.4734C0.245702 10.9752 0.688293 10.6168 1.07369 10.2332C2.20536 9.17882 3.27847 8.06252 4.43874 7.03583H4.43193ZM11.7354 6.77224C13.4336 6.7406 15.1399 6.77224 16.8327 6.75115C17.1867 6.77751 17.613 6.70502 17.8867 6.97784C19.1328 8.10469 20.3216 9.28822 21.5377 10.4441C21.851 10.771 22.2186 11.0741 22.3889 11.4985C22.4869 12.0705 21.7624 12.5159 21.2518 12.2102C18.1781 10.9845 15.1481 9.65065 12.1085 8.34983C11.4099 8.11787 11.6645 7.30205 11.7354 6.77487" fill="#878493"/>
</g>
</svg>
