<svg width="98" height="17" viewBox="0 0 98 17" fill="none" xmlns="http://www.w3.org/2000/svg">
<mask id="mask0_16001_356" style="mask-type:luminance" maskUnits="userSpaceOnUse" x="0" y="0" width="98" height="17">
<path d="M98 0.310059H0V16.3101H98V0.310059Z" fill="white"/>
</mask>
<g mask="url(#mask0_16001_356)">
<path fill-rule="evenodd" clip-rule="evenodd" d="M20.0034 0.322918L0.129033 8.24274C0.0891417 8.25934 0.0558411 8.28868 0.0343076 8.32619C0.0117417 8.3601 -0.000201261 8.39998 1.04102e-05 8.44074C-0.000403888 8.48152 0.0115566 8.52146 0.0343076 8.55528C0.0571765 8.58974 0.0903296 8.61609 0.129033 8.63055L6.02977 10.7627C6.06135 10.7754 6.09577 10.7794 6.1294 10.7742C6.1624 10.769 6.19372 10.7561 6.22086 10.7365L17.4148 2.56469C17.4176 2.56347 17.4207 2.56285 17.4238 2.56285C17.4269 2.56285 17.4299 2.56347 17.4328 2.56469C17.439 2.56635 17.4447 2.56975 17.4491 2.57451C17.4502 2.5771 17.4507 2.57988 17.4507 2.58269C17.4507 2.58549 17.4502 2.58828 17.4491 2.59087C17.4514 2.59665 17.4514 2.60308 17.4491 2.60887L7.54048 11.2438C7.51763 11.2637 7.49926 11.2883 7.48659 11.3158C7.47472 11.3437 7.46915 11.3739 7.47025 11.4042V16.0022C7.46907 16.0439 7.4817 16.0847 7.50619 16.1184C7.53068 16.1527 7.56479 16.1789 7.60418 16.1937C7.64361 16.2077 7.68644 16.2089 7.7266 16.1972C7.76676 16.1854 7.80221 16.1613 7.82792 16.1282L10.6877 12.597C10.7143 12.5647 10.7502 12.5413 10.7905 12.53C10.8309 12.5168 10.8743 12.5168 10.9147 12.53L14.56 13.8537C14.6081 13.8734 14.6621 13.8734 14.7102 13.8537C14.7576 13.8319 14.7953 13.7935 14.8164 13.7457L20.268 0.588004C20.2826 0.551657 20.286 0.511766 20.2778 0.473461C20.2709 0.434327 20.2521 0.398299 20.2239 0.370372C20.1966 0.341543 20.1613 0.321602 20.1226 0.313139C20.0838 0.304676 20.0435 0.308084 20.0067 0.322918" fill="#878493"/>
<path d="M26.2848 1.91895H24.4883L24.5144 12.8824H26.3109L26.2848 1.91895Z" fill="#878493"/>
<path d="M31.9403 4.99365C31.0322 4.99365 30.2009 5.32092 29.68 5.97545V5.15729H27.9863L28.0059 12.8808H29.6995L29.6865 7.76723C29.8445 7.39821 30.1086 7.08471 30.4451 6.86671C30.7817 6.64871 31.1754 6.53611 31.5761 6.54325C32.654 6.54325 33.2713 7.31069 33.2746 8.53139L33.2844 12.8808H34.978L34.9666 8.2614C34.9666 6.26508 33.7874 5.0002 31.9403 5.00511" fill="#878493"/>
<path d="M41.9744 5.12454L39.6291 10.5375L37.2756 5.13763H35.3975L38.8958 12.853H40.3902L43.864 5.11963L41.9744 5.12454Z" fill="#878493"/>
<path d="M48.0685 4.9557C47.0815 4.97207 46.1359 5.35532 45.4151 6.03103C44.6943 6.70675 44.2498 7.62671 44.168 8.6123C44.0862 9.59789 44.3728 10.5788 44.9723 11.3646C45.5717 12.1503 46.4412 12.6849 47.4119 12.8644C48.3826 13.0439 49.3853 12.8556 50.2252 12.3361C51.0651 11.8166 51.6824 11.0029 51.9572 10.0529C52.232 9.10303 52.1446 8.08471 51.7122 7.19569C51.2797 6.30668 50.5329 5.6104 49.6168 5.24205C49.125 5.04371 48.5985 4.94633 48.0685 4.9557ZM48.0832 11.4127C46.7146 11.4127 45.7559 10.3523 45.7543 8.97779C45.7526 7.60327 46.6983 6.53475 48.0718 6.5233C49.4453 6.51184 50.3844 7.58527 50.3877 8.95979C50.3909 10.3343 49.4388 11.4012 48.0881 11.4045L48.0832 11.4127Z" fill="#878493"/>
<path d="M55.0091 5.08691H53.3154L53.3367 12.8104H55.0287L55.0091 5.08691Z" fill="#878493"/>
<path d="M55.0091 2.1084H53.3154V3.676H55.0091V2.1084Z" fill="#878493"/>
<path d="M60.4084 6.50054C60.8533 6.49744 61.2896 6.62362 61.6644 6.86379C62.0391 7.10396 62.3364 7.44784 62.5202 7.85379L63.99 7.04871C63.6458 6.39614 63.1278 5.8519 62.4936 5.4764C61.8593 5.1009 61.1336 4.90882 60.397 4.92149C58.0942 4.92476 56.3467 6.66418 56.3467 8.9534C56.3467 11.2427 58.1187 12.9641 60.4297 12.9608C61.1661 12.9711 61.8909 12.7762 62.5233 12.398C63.1556 12.0199 63.6708 11.4731 64.0113 10.8189L62.5316 10.0137C62.3505 10.4212 62.0551 10.7671 61.6813 11.0094C61.3076 11.2517 60.8716 11.3799 60.4264 11.3785C59.0578 11.3785 58.0844 10.3181 58.0811 8.94358C58.0779 7.56907 59.0464 6.50054 60.4166 6.48909" fill="#878493"/>
<path d="M68.9064 4.90186C66.566 4.90186 64.8854 6.65927 64.8985 8.93049C64.8985 11.2721 66.5872 12.9428 68.9227 12.9379C70.5314 12.9379 71.74 12.2343 72.4276 11.1379L71.1406 10.215C70.7421 10.8941 70.0153 11.3916 68.9423 11.3948C67.6652 11.3948 66.646 10.5652 66.566 9.29867L72.6089 9.28394C72.6236 9.03849 72.6236 8.89777 72.6236 8.72759C72.6236 6.24365 70.9201 4.90349 68.9048 4.90677L68.9064 4.90186ZM66.6362 8.05997C66.8649 6.91454 67.8611 6.34019 68.8492 6.34019C69.8373 6.34019 70.7274 6.93745 70.9152 8.04851L66.6362 8.05997Z" fill="#878493"/>
<path d="M93.9901 4.84143H93.9298C93.4033 4.8373 92.8812 4.9381 92.3938 5.13799C91.9065 5.33787 91.4637 5.63284 91.0913 6.00574C90.7188 6.37864 90.424 6.82203 90.2241 7.31011C90.0242 7.7982 89.9232 8.32123 89.9269 8.84879V8.87007C89.9236 9.39889 90.0255 9.92306 90.2267 10.412C90.4279 10.9009 90.7244 11.3447 91.0987 11.7175C91.4731 12.0903 91.9179 12.3846 92.407 12.5832C92.8962 12.7818 93.42 12.8807 93.9478 12.8742H93.9772C94.5046 12.8815 95.0281 12.7831 95.517 12.5847C96.0059 12.3863 96.4502 12.0919 96.8239 11.719C97.1973 11.3464 97.4931 10.903 97.6938 10.4148C97.8946 9.92645 97.9964 9.40304 97.9932 8.87498V8.84879C97.9963 8.32201 97.8948 7.79987 97.6946 7.31275C97.4944 6.82564 97.1995 6.38328 96.8271 6.0114C96.4551 5.63884 96.0129 5.34412 95.5261 5.14439C95.0394 4.94466 94.5179 4.8439 93.9919 4.84798L93.9901 4.84143ZM93.9707 11.305C92.6004 11.305 91.645 10.2446 91.6417 8.8717C91.6384 7.49883 92.5906 6.42703 93.9576 6.41721C95.3246 6.4074 96.2702 7.47919 96.2735 8.8537C96.2767 10.2282 95.3246 11.2951 93.9707 11.2984V11.305Z" fill="#878493"/>
<path d="M86.9951 5.01316V5.72333C86.4545 5.16861 85.6526 4.86262 84.7299 4.86426C82.4989 4.86426 80.8853 6.58567 80.869 8.75217C80.8583 9.26474 80.9512 9.77419 81.142 10.2499C81.3327 10.7257 81.6175 11.1579 81.9792 11.5205C82.3409 11.8832 82.772 12.1689 83.2466 12.3605C83.7213 12.552 84.2297 12.6455 84.7413 12.6352C85.6673 12.6352 86.466 12.308 87.0033 11.7336V12.6483C87.0033 13.851 86.35 14.4941 85.4648 14.6904C83.26 15.0864 81.8897 14.4205 81.8897 14.4205L81.3492 15.8081C82.1364 16.299 84.578 16.4397 85.7114 16.1893C87.3446 15.9013 88.7034 14.8312 88.6985 12.663L88.6838 5.01153L86.9951 5.01316ZM87.0065 9.98759C86.788 10.3335 86.4825 10.6158 86.1208 10.8062C85.7591 10.9966 85.3538 11.0884 84.9455 11.0725C83.6079 11.0725 82.6345 10.0743 82.6181 8.74726C82.6098 8.43864 82.6654 8.13164 82.7815 7.84564C82.8944 7.55901 83.0644 7.29844 83.2812 7.07984C83.498 6.86122 83.7569 6.68902 84.0421 6.57369C84.3274 6.45836 84.633 6.40231 84.9406 6.40895C85.3466 6.39279 85.75 6.4819 86.1116 6.66765C86.4733 6.85341 86.781 7.12952 87.0049 7.46929L87.0065 9.98759Z" fill="#878493"/>
<path d="M75.7724 11.3048L78.0817 8.16303C78.5472 7.55268 79.2903 6.5267 79.4291 6.30253C80.0726 5.23728 80.151 4.11803 79.5925 3.00042C79.1368 2.09062 78.3316 1.64718 77.3403 1.52773C75.9504 1.351 74.505 1.99572 73.8518 3.31459C73.6998 3.6017 73.6003 3.91368 73.5578 4.23585L75.0391 4.56311C75.062 4.49929 75.0832 4.44693 75.0979 4.39948C75.1683 4.12987 75.2982 3.87951 75.4779 3.66684C75.6577 3.45417 75.8828 3.28459 76.1366 3.1706C76.6772 2.92351 77.453 3.02006 77.8711 3.38168C78.5717 3.99203 78.5619 5.01801 78.054 5.67254C77.9691 5.78381 73.5855 11.3801 73.5855 11.3801C73.5443 11.429 73.5223 11.4912 73.5235 11.5552V12.7939L80.0285 12.7775V11.3048H75.7724Z" fill="#878493"/>
</g>
</svg>
