<svg width="28" height="28" viewBox="0 0 28 28" fill="none" xmlns="http://www.w3.org/2000/svg">
<path d="M21.4466 9.37377C20.89 9.62001 20.2996 9.78174 19.6952 9.85361C20.332 9.47241 20.8085 8.87272 21.036 8.16627C20.4376 8.52178 19.7827 8.772 19.0996 8.90605C18.5231 8.29097 17.7173 7.9424 16.8742 7.94336C15.1904 7.94336 13.8248 9.30855 13.8248 10.9931C13.8248 11.232 13.8522 11.4638 13.9035 11.6874C11.3681 11.5598 9.12193 10.3464 7.61745 8.50122C7.34657 8.96662 7.20421 9.49564 7.20493 10.0341C7.20493 11.0921 7.74346 12.0259 8.56151 12.5726C8.07725 12.5572 7.60367 12.4265 7.18024 12.191C7.17977 12.2038 7.17977 12.2166 7.17977 12.2287C7.17977 13.7067 8.23098 14.9396 9.62645 15.2195C9.36455 15.2904 9.0944 15.3262 8.82308 15.326C8.62602 15.326 8.43479 15.3078 8.24891 15.2722C8.63721 16.4834 9.76271 17.3653 11.0976 17.3895C10.0174 18.2373 8.68342 18.6973 7.31021 18.6953C7.06717 18.6955 6.82434 18.6812 6.58301 18.6524C7.97712 19.5486 9.59986 20.0243 11.2572 20.0225C16.8668 20.0225 19.934 15.3758 19.934 11.3462C19.934 11.2143 19.9308 11.082 19.9249 10.9516C20.5219 10.5203 21.0372 9.98599 21.4466 9.37377Z" fill="#C8C6D3"/>
</svg>
