<svg width="24" height="25" viewBox="0 0 24 25" fill="none" xmlns="http://www.w3.org/2000/svg">
<path d="M14 8.46973C14 7.91745 13.5523 7.46973 13 7.46973C12.4477 7.46973 12 7.91745 12 8.46973C12 10.7782 11.4892 12.2121 10.6158 13.0855C9.74243 13.9589 8.30849 14.4697 6 14.4697C5.44772 14.4697 5 14.9174 5 15.4697C5 16.022 5.44772 16.4697 6 16.4697C8.30849 16.4697 9.74243 16.9805 10.6158 17.8539C11.4892 18.7273 12 20.1612 12 22.4697C12 23.022 12.4477 23.4697 13 23.4697C13.5523 23.4697 14 23.022 14 22.4697C14 20.1612 14.5108 18.7273 15.3842 17.8539C16.2576 16.9805 17.6915 16.4697 20 16.4697C20.5523 16.4697 21 16.022 21 15.4697C21 14.9174 20.5523 14.4697 20 14.4697C17.6915 14.4697 16.2576 13.9589 15.3842 13.0855C14.5108 12.2121 14 10.7782 14 8.46973Z" fill="#9585FF"/>
<path d="M6 5.96973C6 5.69359 5.77614 5.46973 5.5 5.46973C5.22386 5.46973 5 5.69359 5 5.96973C5 6.95036 4.78279 7.54233 4.4277 7.89743C4.0726 8.25252 3.48063 8.46973 2.5 8.46973C2.22386 8.46973 2 8.69359 2 8.96973C2 9.24587 2.22386 9.46973 2.5 9.46973C3.48063 9.46973 4.0726 9.68694 4.4277 10.042C4.78279 10.3971 5 10.9891 5 11.9697C5 12.2458 5.22386 12.4697 5.5 12.4697C5.77614 12.4697 6 12.2458 6 11.9697C6 10.9891 6.21721 10.3971 6.5723 10.042C6.9274 9.68694 7.51937 9.46973 8.5 9.46973C8.77614 9.46973 9 9.24587 9 8.96973C9 8.69359 8.77614 8.46973 8.5 8.46973C7.51937 8.46973 6.9274 8.25252 6.5723 7.89743C6.21721 7.54233 6 6.95036 6 5.96973Z" fill="#9585FF"/>
<path d="M11 1.96973C11 1.69359 10.7761 1.46973 10.5 1.46973C10.2239 1.46973 10 1.69359 10 1.96973C10 2.60314 9.85918 2.94511 9.66728 3.13701C9.47538 3.32891 9.13341 3.46973 8.5 3.46973C8.22386 3.46973 8 3.69359 8 3.96973C8 4.24587 8.22386 4.46973 8.5 4.46973C9.13341 4.46973 9.47538 4.61055 9.66728 4.80245C9.85918 4.99435 10 5.33632 10 5.96973C10 6.24587 10.2239 6.46973 10.5 6.46973C10.7761 6.46973 11 6.24587 11 5.96973C11 5.33632 11.1408 4.99435 11.3327 4.80245C11.5246 4.61055 11.8666 4.46973 12.5 4.46973C12.7761 4.46973 13 4.24587 13 3.96973C13 3.69359 12.7761 3.46973 12.5 3.46973C11.8666 3.46973 11.5246 3.32891 11.3327 3.13701C11.1408 2.94511 11 2.60314 11 1.96973Z" fill="#9585FF"/>
</svg>
