<svg width="111" height="28" viewBox="0 0 111 28" fill="none" xmlns="http://www.w3.org/2000/svg">
<path d="M1.24658 3.03998C1.24658 1.62613 2.39273 0.47998 3.80658 0.47998H7.66904C9.08289 0.47998 10.229 1.62613 10.229 3.03998V6.14855C10.229 7.5624 11.3752 8.70855 12.7891 8.70855H15.7533C17.1671 8.70855 18.3133 9.8547 18.3133 11.2685V15.2914C18.3133 16.7052 17.1671 17.8514 15.7533 17.8514H12.7891C11.3752 17.8514 10.229 18.9975 10.229 20.4114V23.5199C10.229 24.9338 9.08289 26.0799 7.66904 26.0799H3.80659C2.39274 26.0799 1.24659 24.9338 1.24659 23.5199V19.4971C1.24659 18.0832 2.39274 16.9371 3.80659 16.9371H6.7708C8.18465 16.9371 9.3308 15.7909 9.3308 14.3771V12.1828C9.3308 10.769 8.18465 9.62284 6.7708 9.62284H3.80658C2.39273 9.62284 1.24658 8.47668 1.24658 7.06283V3.03998Z" fill="black"/>
<path d="M46.7715 22.28L45.0563 17.7232H37.3763L35.6867 22.28H32.4355L39.5011 4.12958H43.0595L50.1251 22.28H46.7715ZM41.2163 7.45758L38.4515 14.8816H43.9811L41.2163 7.45758Z" fill="black"/>
<path d="M50.4312 18.9008L53.0168 18.184C53.1192 19.3104 53.964 20.3088 55.5512 20.3088C56.78 20.3088 57.42 19.6432 57.42 18.8752C57.42 18.2096 56.9592 17.6976 55.9608 17.4928L54.1176 17.0832C51.916 16.5968 50.764 15.1632 50.764 13.448C50.764 11.272 52.7608 9.42877 55.3464 9.42877C58.828 9.42877 59.9544 11.6816 60.1592 12.9104L57.6504 13.6272C57.548 12.9104 57.0104 11.7584 55.3464 11.7584C54.2968 11.7584 53.5544 12.424 53.5544 13.192C53.5544 13.8576 54.0408 14.344 54.8088 14.4976L56.7032 14.8816C59.0584 15.3936 60.2872 16.8272 60.2872 18.6704C60.2872 20.5648 58.7512 22.664 55.5768 22.664C51.9672 22.664 50.5848 20.3088 50.4312 18.9008Z" fill="black"/>
<path d="M65.4079 27.144H62.4639V9.81279H65.3311V11.5024C65.9455 10.4272 67.3791 9.53119 69.2991 9.53119C72.9855 9.53119 75.0591 12.3472 75.0591 16.0336C75.0591 19.7712 72.7807 22.5872 69.1967 22.5872C67.4047 22.5872 66.0479 21.8192 65.4079 20.872V27.144ZM72.0895 16.0336C72.0895 13.704 70.7327 12.168 68.7359 12.168C66.7903 12.168 65.3823 13.704 65.3823 16.0336C65.3823 18.4144 66.7903 19.9504 68.7359 19.9504C70.7071 19.9504 72.0895 18.4144 72.0895 16.0336Z" fill="black"/>
<path d="M79.2193 14.6768H85.3377C85.2865 13.2176 84.3136 11.912 82.2656 11.912C80.3968 11.912 79.3217 13.3456 79.2193 14.6768ZM85.6704 17.928L88.1793 18.7216C87.5137 20.8976 85.5424 22.664 82.5472 22.664C79.168 22.664 76.1729 20.2064 76.1729 15.9824C76.1729 12.04 79.0913 9.42877 82.2401 9.42877C86.0801 9.42877 88.3328 11.9632 88.3328 15.9056C88.3328 16.392 88.2817 16.8016 88.2561 16.8528H79.1424C79.2192 18.7472 80.704 20.104 82.5472 20.104C84.3392 20.104 85.2608 19.1568 85.6704 17.928Z" fill="black"/>
<path d="M95.8302 12.168C94.0126 12.168 92.3998 13.5248 92.3998 16.0336C92.3998 18.5424 94.0126 19.9504 95.8814 19.9504C97.827 19.9504 98.723 18.5936 99.0046 17.6464L101.616 18.5936C101.027 20.5392 99.1582 22.664 95.8814 22.664C92.2206 22.664 89.4302 19.8224 89.4302 16.0336C89.4302 12.1936 92.2206 9.42877 95.8046 9.42877C99.1582 9.42877 101.001 11.528 101.513 13.5248L98.851 14.4976C98.5694 13.3968 97.7246 12.168 95.8302 12.168Z" fill="black"/>
<path d="M107.248 5.99835V9.81275H109.834V12.4496H107.248V18.2352C107.248 19.336 107.734 19.7968 108.835 19.7968C109.245 19.7968 109.731 19.72 109.859 19.6944V22.152C109.68 22.2288 109.117 22.4336 108.042 22.4336C105.738 22.4336 104.304 21.0512 104.304 18.7216V12.4496H102V9.81275H102.64C103.971 9.81275 104.56 8.96795 104.56 7.86715V5.99835H107.248Z" fill="black"/>
</svg>
