<svg width="100" height="33" viewBox="0 0 100 33" fill="none" xmlns="http://www.w3.org/2000/svg">
<path d="M10.254 5.25952C10.0857 5.25952 9.94922 5.39597 9.94922 5.56429V12.9395H13.7892H17.6292V5.56429C17.6292 5.39597 17.4927 5.25952 17.3244 5.25952H10.254Z" fill="black"/>
<path d="M2.5738 12.9395C2.40549 12.9395 2.26904 13.0759 2.26904 13.2443V20.05C2.26904 20.2935 2.54033 20.4386 2.74286 20.3036L13.789 12.9395L24.8352 20.3036C25.0377 20.4386 25.309 20.2935 25.309 20.05V13.2443C25.309 13.0759 25.1726 12.9395 25.0042 12.9395H13.789H2.5738Z" fill="black"/>
<path d="M10.254 20.6195C10.0857 20.6195 9.94922 20.7559 9.94922 20.9243V27.9947C9.94922 28.163 10.0857 28.2995 10.254 28.2995H17.3244C17.4927 28.2995 17.6292 28.163 17.6292 27.9947V20.9243C17.6292 20.7559 17.4927 20.6195 17.3244 20.6195H10.254Z" fill="black"/>
<path d="M41.4377 15.9752H44.6377C46.5833 15.9752 47.7609 14.9 47.7609 13.1848C47.7609 11.444 46.5833 10.3432 44.6377 10.3432H41.4377V15.9752ZM45.0985 18.6888H41.4377V25.78H38.3657V7.62962H45.0985C48.5801 7.62962 50.8841 9.98482 50.8841 13.1592C50.8841 16.3592 48.5801 18.6888 45.0985 18.6888ZM59.7127 13.236V16.2568C59.3799 16.2056 59.0471 16.18 58.7399 16.18C56.4359 16.18 55.3863 17.5112 55.3863 19.8408V25.78H52.4167V13.3128H55.3095V15.3096C55.8983 13.9528 57.2807 13.1592 58.9191 13.1592C59.2775 13.1592 59.5847 13.2104 59.7127 13.236ZM64.3677 25.78H61.4237V13.3128H64.3677V25.78ZM60.9629 8.93522C60.9629 7.86002 61.8333 6.98962 62.8829 6.98962C63.9581 6.98962 64.8285 7.86002 64.8285 8.93522C64.8285 10.0104 63.9581 10.8552 62.8829 10.8552C61.8333 10.8552 60.9629 10.0104 60.9629 8.93522ZM66.3299 22.4008L68.9155 21.684C69.0179 22.8104 69.8627 23.8088 71.4499 23.8088C72.6787 23.8088 73.3187 23.1432 73.3187 22.3752C73.3187 21.7096 72.8579 21.1976 71.8595 20.9928L70.0163 20.5832C67.8147 20.0968 66.6627 18.6632 66.6627 16.948C66.6627 14.772 68.6595 12.9288 71.2451 12.9288C74.7267 12.9288 75.8531 15.1816 76.0579 16.4104L73.5491 17.1272C73.4467 16.4104 72.9091 15.2584 71.2451 15.2584C70.1955 15.2584 69.4531 15.924 69.4531 16.692C69.4531 17.3576 69.9395 17.844 70.7075 17.9976L72.6019 18.3816C74.9571 18.8936 76.1859 20.3272 76.1859 22.1704C76.1859 24.0648 74.6499 26.164 71.4755 26.164C67.8659 26.164 66.4835 23.8088 66.3299 22.4008ZM81.3067 25.78H78.3627V13.3128H81.2043V14.9C81.9211 13.62 83.4827 12.9544 84.8907 12.9544C86.5291 12.9544 87.9627 13.6968 88.6283 15.156C89.6011 13.5176 91.0603 12.9544 92.6731 12.9544C94.9259 12.9544 97.0763 14.388 97.0763 17.6904V25.78H94.2091V18.1768C94.2091 16.7176 93.4667 15.6168 91.8027 15.6168C90.2411 15.6168 89.2171 16.8456 89.2171 18.3816V25.78H86.2987V18.1768C86.2987 16.7432 85.5819 15.6168 83.8923 15.6168C82.3051 15.6168 81.3067 16.7944 81.3067 18.3816V25.78Z" fill="black"/>
</svg>
