<svg width="122" height="13" viewBox="0 0 122 13" fill="none" xmlns="http://www.w3.org/2000/svg">
<path d="M12.3373 4.39009C12.3373 2.39982 11.007 0.592005 8.48495 0.577325C6.78796 0.577325 1.69699 0.560547 0 0.560547V12.0807H2.01884V8.23641H7.35948L10.4804 12.0807H12.8796V11.9339L9.63774 8.00572C11.6722 7.5611 12.3451 5.96721 12.3451 4.39009H12.3373ZM2.02664 6.2776V2.59696H8.49276C9.76062 2.59696 10.3263 3.51764 10.3263 4.43833C10.3263 5.35901 9.77623 6.27969 8.49276 6.27969L2.02664 6.2776Z" fill="#878493"/>
<path d="M26.323 0.564742C24.6416 0.564742 19.5662 0.58152 17.8848 0.58152V12.0849H19.9017V8.6957H26.323C31.5661 8.6957 31.5505 0.560547 26.323 0.560547V0.564742ZM26.323 6.70753H19.9017V2.63051H26.323C28.8899 2.63051 28.9055 6.70753 26.323 6.70753Z" fill="#878493"/>
<path d="M63.1983 6.1332C64.1912 5.65503 64.5891 4.80146 64.5891 3.91224C64.5891 1.60528 63.015 0.577637 60.9045 0.577637H52.4351V12.0809H60.9045C63.1203 12.0809 64.909 11.2609 64.909 8.69602C64.909 7.97247 64.4506 6.54216 63.1983 6.1332ZM54.4208 2.54904H60.9025C62.1879 2.54904 62.5839 3.43616 62.5839 3.96257C62.5839 4.619 62.1723 5.19574 60.9025 5.19574H54.4228L54.4208 2.54904ZM60.9025 10.0613H54.4228V7.10212H60.9045C61.7296 7.10212 62.9077 7.64321 62.9077 8.67924C62.9077 9.76351 61.7374 10.0613 60.9045 10.0613" fill="#878493"/>
<path d="M71.7556 0.577637H69.7368V12.083H80.6522V10.076H71.7556V0.577637Z" fill="#878493"/>
<path d="M87.4983 0.577637H85.4951V12.083H87.4983V0.577637Z" fill="#878493"/>
<path d="M102.625 8.9035C102.336 9.21223 102.008 9.47495 101.65 9.68367C101.247 9.91352 100.819 10.0882 100.376 10.2038C99.8726 10.3335 99.3564 10.3969 98.8389 10.3926C98.1601 10.4046 97.4843 10.2939 96.8395 10.0654C96.3065 9.87244 95.8136 9.56969 95.3883 9.17403C95.007 8.81166 94.7047 8.36342 94.5028 7.86117C94.3058 7.37119 94.2042 6.84301 94.2043 6.30921C94.2032 5.76989 94.3048 5.23603 94.5028 4.74048C94.7047 4.23824 95.007 3.78999 95.3883 3.42761C95.8137 3.03195 96.3085 2.73175 96.8434 2.54468C97.4884 2.3209 98.1632 2.21319 98.8408 2.2259C99.3342 2.22342 99.8263 2.28112 100.308 2.39787C100.735 2.50094 101.15 2.65573 101.545 2.85927C101.9 3.04341 102.229 3.28297 102.52 3.57023C102.695 3.74682 102.854 3.94139 102.994 4.15116L104.695 3.14029C104.479 2.80491 104.231 2.49553 103.953 2.21751C103.56 1.82258 103.12 1.48548 102.645 1.21503C102.116 0.91684 101.553 0.69271 100.971 0.548111C100.307 0.385248 99.6273 0.305721 98.9461 0.311122C97.9686 0.295058 96.9959 0.461097 96.071 0.801878C95.2942 1.08958 94.5758 1.53451 93.9546 2.11265C93.4001 2.63679 92.9559 3.28201 92.6516 4.00529C92.3473 4.72856 92.1899 5.51328 92.1899 6.30712C92.1899 7.10095 92.3473 7.88567 92.6516 8.60895C92.9559 9.33223 93.4001 9.97744 93.9546 10.5016C94.5752 11.0807 95.2938 11.5257 96.071 11.8124C96.9918 12.1539 97.9605 12.322 98.9344 12.3094C99.6371 12.3156 100.338 12.2304 101.022 12.0557C101.617 11.9011 102.191 11.6635 102.729 11.3489C103.213 11.0675 103.658 10.7145 104.051 10.3002C104.336 9.99641 104.588 9.65786 104.8 9.29148L103.091 8.28481C102.958 8.51238 102.802 8.72339 102.625 8.91398" fill="#878493"/>
<path d="M43.9031 0.564943C43.6762 0.564667 43.4515 0.612471 43.2419 0.705623C43.0322 0.798775 42.8417 0.935446 42.6812 1.10782C42.5206 1.2802 42.3933 1.4849 42.3064 1.71023C42.2196 1.93555 42.1749 2.17708 42.1749 2.42099H45.3952V6.39105C45.3354 6.91861 45.2269 7.43848 45.0714 7.943C44.8695 8.44524 44.5672 8.89349 44.1859 9.25586C43.7602 9.65198 43.2665 9.95476 42.7327 10.1472C41.6677 10.6008 40.4818 10.6008 39.4168 10.1472C38.883 9.95476 38.3893 9.65198 37.9636 9.25586C37.5823 8.89349 37.2799 8.44524 37.078 7.943C36.9226 7.43848 36.8141 6.91861 36.7542 6.39105V0.564943H34.7608V6.39105C34.7561 7.18473 34.9104 7.97019 35.2134 8.69399C35.5163 9.41778 35.9607 10.0629 36.5163 10.5855C37.1379 11.1625 37.8571 11.6054 38.6346 11.89C40.2193 12.4432 41.9262 12.4432 43.511 11.89C44.2882 11.6033 45.0068 11.1583 45.6274 10.5792C46.183 10.0566 46.6273 9.41148 46.9303 8.68769C47.2332 7.9639 47.3876 7.17844 47.3829 6.38476V0.564943H43.9031Z" fill="#878493"/>
<path d="M114.502 2.47144L109.789 12.0809H107.782L113.384 0.648942V0.577637H116.361L122 12.0809H119.993L118.795 9.64816H115.204C114.971 9.64816 114.74 9.59874 114.524 9.50273C114.309 9.40671 114.113 9.26598 113.948 9.08857C113.783 8.91115 113.652 8.70053 113.563 8.46873C113.473 8.23693 113.427 7.98849 113.427 7.73759H117.855L115.267 2.47144H114.502Z" fill="#878493"/>
</svg>
