<svg width="104" height="13" viewBox="0 0 104 13" fill="none" xmlns="http://www.w3.org/2000/svg">
<mask id="mask0_16001_322" style="mask-type:luminance" maskUnits="userSpaceOnUse" x="0" y="0" width="104" height="13">
<path d="M104 0.310059H0V12.3101H104V0.310059Z" fill="white"/>
</mask>
<g mask="url(#mask0_16001_322)">
<path d="M4.76174 12.1247L0 0.495117H2.43919L5.92472 9.17095L9.43084 0.495117H11.87L7.08428 12.1247H4.76174Z" fill="#878493"/>
<path d="M13.97 5.28799H21.1229C20.9157 4.50248 20.4547 3.80408 19.809 3.29754C19.1785 2.78784 18.3854 2.5124 17.5687 2.51954C16.7308 2.49883 15.9125 2.77097 15.2599 3.28743C14.6205 3.79947 14.1678 4.50155 13.97 5.28799ZM13.253 10.569C12.6812 10.018 12.2296 9.35851 11.9258 8.63067C11.6221 7.90283 11.4725 7.12187 11.4862 6.33542C11.473 5.54762 11.6204 4.76518 11.9197 4.0341C12.219 3.30302 12.6641 2.63808 13.229 2.07834C13.7764 1.50625 14.44 1.05328 15.1769 0.748705C15.9138 0.444133 16.7076 0.294737 17.507 0.310166C19.0682 0.292509 20.577 0.862567 21.7233 1.9032C22.3182 2.43435 22.7933 3.08177 23.1183 3.80389C23.4432 4.52601 23.6108 5.30686 23.6101 6.0963C23.6121 6.44547 23.5891 6.79434 23.5415 7.14037H13.97C14.0056 7.55042 14.1233 7.94953 14.3164 8.3148C14.5095 8.68007 14.7742 9.00432 15.0952 9.26891C15.7648 9.82518 16.62 10.119 17.4967 10.094C18.0275 10.1128 18.5562 10.0187 19.0465 9.81816C19.5368 9.6176 19.9771 9.31535 20.3373 8.93212L23.1092 8.95569C22.5939 9.95659 21.8067 10.7982 20.8347 11.3874C19.8575 11.9958 18.7225 12.315 17.5653 12.3068C16.7637 12.322 15.9674 12.1757 15.2257 11.8767C14.4839 11.5778 13.8125 11.1327 13.253 10.569Z" fill="#878493"/>
<path d="M25.1846 12.1249V6.06254C25.1846 4.20119 25.642 2.80124 26.5568 1.86271C27.0243 1.39184 27.5876 1.02308 28.2101 0.780497C28.8326 0.537913 29.5002 0.426967 30.1693 0.454906H30.406V2.66765H30.1693C28.3991 2.66765 27.5151 3.79928 27.5174 6.06254V12.1249H25.1846Z" fill="#878493"/>
<path d="M37.3423 2.51931C36.8323 2.50352 36.3246 2.59276 35.8519 2.78128C35.3792 2.96981 34.952 3.25343 34.5978 3.6139C33.893 4.34034 33.4999 5.30508 33.4999 6.30826C33.4999 7.31144 33.893 8.27617 34.5978 9.00261C34.9471 9.36174 35.3688 9.64545 35.836 9.83565C36.3032 10.0258 36.8057 10.1184 37.3114 10.1073C37.8119 10.1196 38.3096 10.0289 38.7722 9.84098C39.2349 9.65304 39.6523 9.37205 39.9976 9.01609C40.6901 8.28357 41.0749 7.32112 41.0749 6.32173C41.0749 5.32234 40.6901 4.35989 39.9976 3.62737C39.653 3.2703 39.2358 2.98833 38.773 2.79976C38.3102 2.61119 37.8123 2.52024 37.3114 2.53279L37.3423 2.51931ZM32.9922 2.05453C33.9928 1.06944 35.3103 0.455488 36.7204 0.317329C38.1304 0.17917 39.5456 0.525354 40.7247 1.29688C41.9039 2.0684 42.774 3.21751 43.1867 4.54833C43.5995 5.87915 43.5293 7.3093 42.9882 8.59502C42.4471 9.88074 41.4686 10.9425 40.2193 11.5992C38.9701 12.2559 37.5276 12.467 36.1376 12.1964C34.7476 11.9259 33.4963 11.1905 32.5968 10.1155C31.6973 9.04057 31.2053 7.69265 31.2048 6.30151C31.1921 5.51138 31.3441 4.72705 31.6515 3.99671C31.9589 3.26636 32.4151 2.60544 32.9922 2.05453Z" fill="#878493"/>
<path d="M55.4529 12.1247H52.801L49.7443 7.96186L46.6876 12.1247H44.0117L48.4167 6.07918L44.3651 0.495117H46.9964L49.7203 4.2167L52.4923 0.495117H55.1236L51.072 6.07918L55.4529 12.1247Z" fill="#878493"/>
<path d="M58.146 12.0876V8.19759H56.0225V6.85041H58.146V6.43616L58.1941 5.01825C58.3221 3.60595 58.7727 2.49679 59.5457 1.69072C60.3635 0.866539 61.4637 0.369668 62.6333 0.296387V1.71766C61.8582 1.83453 61.1455 2.20335 60.6092 2.76509C60.0513 3.39275 59.7292 4.18915 59.6967 5.02162L59.6487 6.43952V6.85378H63.3846V8.20096H59.6624V12.091L58.146 12.0876Z" fill="#878493"/>
<path d="M67.3054 0.498535H65.7891V12.1281H67.3054V0.498535Z" fill="#878493"/>
<path d="M79.22 3.06492C78.8004 2.63368 78.2939 2.29298 77.7328 2.06451C77.1717 1.83605 76.5682 1.72483 75.9609 1.73795C75.3508 1.72712 74.745 1.8393 74.1809 2.06755C73.6168 2.29579 73.1063 2.63525 72.6812 3.06492C71.8199 3.93548 71.338 5.10134 71.338 6.31499C71.338 7.52863 71.8199 8.69449 72.6812 9.56506C73.1026 9.9981 73.6104 10.3413 74.173 10.5731C74.7355 10.8048 75.3406 10.9203 75.9506 10.9123C76.5558 10.9236 77.1569 10.8119 77.716 10.5841C78.2751 10.3563 78.7802 10.0173 79.1994 9.58863C80.0467 8.70828 80.5188 7.54301 80.5188 6.33183C80.5188 5.12065 80.0467 3.95538 79.1994 3.07502L79.22 3.06492ZM71.6143 2.05453C72.6148 1.06944 73.9324 0.455488 75.3424 0.317329C76.7525 0.17917 78.1677 0.525354 79.3468 1.29688C80.5259 2.0684 81.396 3.21751 81.8088 4.54833C82.2215 5.87915 82.1514 7.3093 81.6103 8.59502C81.0692 9.88074 80.0906 10.9425 78.8414 11.5992C77.5922 12.2559 76.1497 12.467 74.7597 12.1964C73.3697 11.9259 72.1183 11.1905 71.2188 10.1155C70.3193 9.04057 69.8274 7.69265 69.8269 6.30151C69.8142 5.51138 69.9662 4.72705 70.2736 3.99671C70.5809 3.26636 71.0372 2.60544 71.6143 2.05453Z" fill="#878493"/>
<path d="M93.9275 3.06492C93.5079 2.63368 93.0015 2.29298 92.4403 2.06451C91.8792 1.83605 91.2758 1.72483 90.6684 1.73795C90.0584 1.72712 89.4526 1.8393 88.8884 2.06755C88.3243 2.29579 87.8139 2.63525 87.3887 3.06492C86.5274 3.93548 86.0456 5.10134 86.0456 6.31499C86.0456 7.52863 86.5274 8.69449 87.3887 9.56506C87.8099 9.99842 88.3177 10.3418 88.8802 10.5736C89.4428 10.8054 90.0481 10.9207 90.6582 10.9123C91.2629 10.9239 91.8636 10.8123 92.4222 10.5845C92.9808 10.3567 93.4852 10.0176 93.9036 9.58863C94.7516 8.70867 95.2242 7.54325 95.2242 6.33183C95.2242 5.12041 94.7516 3.95499 93.9036 3.07502L93.9275 3.06492ZM86.3252 2.05453C87.3258 1.06944 88.6434 0.455488 90.0534 0.317329C91.4634 0.17917 92.8786 0.525354 94.0578 1.29688C95.2369 2.0684 96.107 3.21751 96.5198 4.54833C96.9325 5.87915 96.8624 7.3093 96.3213 8.59502C95.7802 9.88074 94.8016 10.9425 93.5524 11.5992C92.3032 12.2559 90.8606 12.467 89.4707 12.1964C88.0807 11.9259 86.8293 11.1905 85.9298 10.1155C85.0303 9.04057 84.5384 7.69265 84.5379 6.30151C84.525 5.51136 84.6769 4.72697 84.9843 3.99659C85.2916 3.26622 85.748 2.60532 86.3252 2.05453Z" fill="#878493"/>
<path d="M98.5488 12.1248V6.09617C98.5488 4.22134 98.9868 2.81017 99.8628 1.86266C100.313 1.38822 100.862 1.01564 101.474 0.770784C102.085 0.525929 102.744 0.414677 103.403 0.444751C103.518 0.442983 103.633 0.449738 103.746 0.464958V1.88623C103.633 1.86797 103.518 1.86007 103.403 1.86266C102.94 1.84388 102.479 1.93084 102.055 2.11667C101.632 2.3025 101.259 2.58216 100.964 2.93366C100.365 3.64542 100.065 4.69959 100.065 6.09617V12.1248H98.5488Z" fill="#878493"/>
<path d="M102.45 10.8315H102.707C102.794 10.8404 102.882 10.8215 102.957 10.7776C102.979 10.7609 102.996 10.7393 103.007 10.7147C103.019 10.6901 103.024 10.6631 103.022 10.6362C103.023 10.6002 103.012 10.565 102.992 10.5351C102.969 10.5048 102.938 10.4815 102.902 10.4678C102.833 10.4508 102.761 10.444 102.69 10.4475H102.45V10.8315ZM102.237 11.5556V10.2724H102.69C102.805 10.2662 102.921 10.2776 103.033 10.3061C103.099 10.3299 103.157 10.3734 103.197 10.4307C103.237 10.4861 103.258 10.5518 103.259 10.6193C103.26 10.665 103.251 10.7104 103.233 10.7526C103.216 10.7949 103.19 10.8332 103.156 10.8652C103.083 10.9357 102.985 10.9765 102.882 10.9797C102.924 10.9957 102.962 11.0197 102.995 11.0504C103.068 11.1278 103.132 11.2125 103.187 11.303L103.348 11.5556H103.091L102.974 11.3535C102.92 11.2407 102.844 11.1389 102.751 11.0538C102.702 11.0205 102.643 11.005 102.583 11.01H102.45V11.5556H102.237ZM102.772 9.89853C102.598 9.90021 102.426 9.9454 102.275 10.0299C102.114 10.1131 101.981 10.2407 101.894 10.397C101.804 10.5483 101.757 10.7203 101.757 10.8955C101.757 11.0691 101.803 11.2396 101.89 11.3906C101.978 11.5459 102.109 11.6733 102.268 11.7577C102.421 11.8459 102.595 11.8924 102.772 11.8924C102.949 11.8924 103.123 11.8459 103.276 11.7577C103.435 11.6733 103.566 11.5459 103.654 11.3906C103.738 11.2387 103.783 11.0686 103.784 10.8955C103.784 10.7208 103.738 10.549 103.65 10.397C103.562 10.2414 103.43 10.114 103.269 10.0299C103.124 9.94864 102.96 9.90355 102.793 9.89853H102.772ZM102.772 9.70318C102.981 9.70392 103.186 9.75604 103.369 9.85474C103.561 9.9564 103.719 10.1094 103.825 10.2959C103.93 10.4793 103.985 10.6855 103.986 10.8955C103.987 11.1036 103.931 11.3082 103.825 11.4882C103.723 11.6761 103.566 11.8306 103.376 11.9328C103.191 12.0343 102.983 12.0876 102.772 12.0876C102.561 12.0876 102.353 12.0343 102.168 11.9328C101.982 11.8268 101.83 11.6716 101.729 11.4849C101.623 11.3036 101.566 11.098 101.566 10.8887C101.566 10.6795 101.623 10.4739 101.729 10.2926C101.836 10.106 101.994 9.95303 102.185 9.85137C102.372 9.75219 102.581 9.70119 102.793 9.70318H102.772Z" fill="#878493"/>
</g>
</svg>
