<svg width="28" height="28" viewBox="0 0 28 28" fill="none" xmlns="http://www.w3.org/2000/svg">
<path d="M14.1785 8.16602C14.5679 8.16816 15.5423 8.17758 16.5776 8.21905L16.9447 8.23506C17.987 8.28441 19.0285 8.36871 19.545 8.51274C20.234 8.7063 20.7756 9.27107 20.9586 9.98698C21.25 11.1239 21.2865 13.3427 21.291 13.8797L21.2917 13.9909V13.9987C21.2917 13.9987 21.2917 14.0014 21.2917 14.0066L21.291 14.1179C21.2865 14.6548 21.25 16.8737 20.9586 18.0105C20.773 18.7291 20.2315 19.2939 19.545 19.4848C19.0285 19.6288 17.987 19.7131 16.9447 19.7624L16.5776 19.7784C15.5423 19.8199 14.5679 19.8293 14.1785 19.8315L14.0076 19.8321H14C14 19.8321 13.9974 19.8321 13.9924 19.8321L13.8216 19.8315C12.9974 19.827 9.55107 19.7897 8.45498 19.4848C7.76598 19.2912 7.22445 18.7264 7.04139 18.0105C6.74996 16.8737 6.71353 14.6548 6.70898 14.1179V13.8797C6.71353 13.3427 6.74996 11.1239 7.04139 9.98698C7.22698 9.26842 7.76852 8.70365 8.45498 8.51274C9.55107 8.20775 12.9974 8.17056 13.8216 8.16602H14.1785ZM12.5417 11.4467V16.5508L16.9167 13.9987L12.5417 11.4467Z" fill="#C8C6D3"/>
</svg>
