<svg width="18" height="16" viewBox="0 0 18 16" fill="none" xmlns="http://www.w3.org/2000/svg">
<path d="M6.93383 13H11.5455C12.2865 13 12.6796 12.5922 12.6796 11.7869V8.27521C12.6796 7.46992 12.2865 7.06727 11.5455 7.06727H6.93383C6.19293 7.06727 5.7998 7.46992 5.7998 8.27521V11.7869C5.7998 12.5922 6.19293 13 6.93383 13ZM6.68182 7.45972H7.4832V5.737C7.4832 4.45259 8.29466 3.76962 9.23717 3.76962C10.1797 3.76962 11.0012 4.45259 11.0012 5.737V7.45972H11.7976V5.84912C11.7976 3.93272 10.5577 3 9.23717 3C7.92169 3 6.68182 3.93272 6.68182 5.84912V7.45972Z" fill="#B3B3BC"/>
</svg>
