<svg width="24" height="25" viewBox="0 0 24 25" fill="none" xmlns="http://www.w3.org/2000/svg">
<path d="M7 3.46973C7.55228 3.46973 8 3.91745 8 4.46973V6.46973H10C10.5523 6.46973 11 6.91745 11 7.46973C11 8.02201 10.5523 8.46973 10 8.46973H8V10.4697C8 11.022 7.55228 11.4697 7 11.4697C6.44772 11.4697 6 11.022 6 10.4697V8.46973H4C3.44772 8.46973 3 8.02201 3 7.46973C3 6.91745 3.44772 6.46973 4 6.46973H6V4.46973C6 3.91745 6.44772 3.46973 7 3.46973Z" fill="#9585FF"/>
<path d="M17 3.46973C14.7909 3.46973 13 5.26059 13 7.46973C13 9.67887 14.7909 11.4697 17 11.4697C19.2091 11.4697 21 9.67887 21 7.46973C21 5.26059 19.2091 3.46973 17 3.46973Z" fill="#9585FF"/>
<path d="M19.8282 16.0552C20.2188 15.6647 20.2188 15.0315 19.8282 14.641C19.4377 14.2505 18.8045 14.2505 18.414 14.641L16.9998 16.0552L15.5856 14.641C15.1951 14.2505 14.5619 14.2505 14.1714 14.641C13.7808 15.0315 13.7808 15.6647 14.1714 16.0552L15.5856 17.4694L14.1714 18.8836C13.7808 19.2742 13.7808 19.9073 14.1714 20.2979C14.5619 20.6884 15.1951 20.6884 15.5856 20.2979L16.9998 18.8836L18.414 20.2979C18.8045 20.6884 19.4377 20.6884 19.8282 20.2979C20.2188 19.9073 20.2188 19.2742 19.8282 18.8836L18.414 17.4694L19.8282 16.0552Z" fill="#9585FF"/>
<path d="M4 13.4697C3.44772 13.4697 3 13.9174 3 14.4697V20.4697C3 21.022 3.44772 21.4697 4 21.4697H10C10.5523 21.4697 11 21.022 11 20.4697V14.4697C11 13.9174 10.5523 13.4697 10 13.4697H4Z" fill="#9585FF"/>
</svg>
