<svg width="24" height="25" viewBox="0 0 24 25" fill="none" xmlns="http://www.w3.org/2000/svg">
<path fill-rule="evenodd" clip-rule="evenodd" d="M3.00098 6.96973C3.00098 5.03673 4.56798 3.46973 6.50098 3.46973C8.43397 3.46973 10.001 5.03673 10.001 6.96973V8.46973H14.001V6.96973C14.001 5.03673 15.568 3.46973 17.501 3.46973C19.434 3.46973 21.001 5.03673 21.001 6.96973C21.001 8.90273 19.434 10.4697 17.501 10.4697H16.001V14.4697H17.501C19.434 14.4697 21.001 16.0367 21.001 17.9697C21.001 19.9027 19.434 21.4697 17.501 21.4697C15.568 21.4697 14.001 19.9027 14.001 17.9697V16.4697H10.001V17.9697C10.001 19.9027 8.43397 21.4697 6.50098 21.4697C4.56798 21.4697 3.00098 19.9027 3.00098 17.9697C3.00098 16.0367 4.56798 14.4697 6.50098 14.4697H8.00098V10.4697H6.50098C4.56798 10.4697 3.00098 8.90273 3.00098 6.96973ZM8.00098 8.46973V6.96973C8.00098 6.1413 7.3294 5.46973 6.50098 5.46973C5.67255 5.46973 5.00098 6.1413 5.00098 6.96973C5.00098 7.79816 5.67255 8.46973 6.50098 8.46973H8.00098ZM10.001 10.4697V14.4697H14.001V10.4697H10.001ZM8.00098 16.4697H6.50098C5.67255 16.4697 5.00098 17.1413 5.00098 17.9697C5.00098 18.7981 5.67255 19.4697 6.50098 19.4697C7.3294 19.4697 8.00098 18.7981 8.00098 17.9697V16.4697ZM16.001 16.4697V17.9697C16.001 18.7981 16.6726 19.4697 17.501 19.4697C18.3294 19.4697 19.001 18.7981 19.001 17.9697C19.001 17.1413 18.3294 16.4697 17.501 16.4697H16.001ZM16.001 8.46973H17.501C18.3294 8.46973 19.001 7.79816 19.001 6.96973C19.001 6.1413 18.3294 5.46973 17.501 5.46973C16.6725 5.46973 16.001 6.1413 16.001 6.96973V8.46973Z" fill="#9585FF"/>
</svg>
