<svg width="95" height="33" viewBox="0 0 95 33" fill="none" xmlns="http://www.w3.org/2000/svg">
<path d="M13.7786 12.5135L9.51569 8.24683L0.989746 16.7801L9.5157 25.3134L13.7786 21.0468L9.51568 16.7801L13.7786 12.5135Z" fill="black"/>
<path d="M18.0638 8.24683L13.8008 12.5135L18.0638 16.7801L13.8008 21.0468L18.0638 25.3134L26.5897 16.7801L18.0638 8.24683Z" fill="black"/>
<path d="M44.8426 21.7608L49.937 7.62962H53.1882L46.3274 25.78H43.2042L36.4458 7.62962H39.7738L44.8426 21.7608ZM52.3488 22.4008C52.3488 20.1736 53.9872 18.9448 56.112 18.6376L59.312 18.1512C60.0288 18.0488 60.2336 17.6904 60.2336 17.2552C60.2336 16.2056 59.5168 15.3608 57.8784 15.3608C56.3168 15.3608 55.4464 16.3592 55.3184 17.6136L52.6048 16.9992C52.8352 14.8488 54.7808 12.9288 57.8528 12.9288C61.6928 12.9288 63.152 15.1048 63.152 17.588V23.7832C63.152 24.9096 63.28 25.652 63.3056 25.78H60.5408C60.5152 25.7032 60.4128 25.1912 60.4128 24.1928C59.824 25.14 58.5952 26.164 56.5728 26.164C53.9616 26.164 52.3488 24.372 52.3488 22.4008ZM57.136 23.8344C58.8 23.8344 60.2336 23.0408 60.2336 20.6088V20.0456L56.9824 20.532C56.0608 20.6856 55.3184 21.1976 55.3184 22.2216C55.3184 23.0664 55.9584 23.8344 57.136 23.8344ZM73.2698 13.236V16.2568C72.937 16.2056 72.6042 16.18 72.297 16.18C69.993 16.18 68.9434 17.5112 68.9434 19.8408V25.78H65.9738V13.3128H68.8666V15.3096C69.4554 13.9528 70.8378 13.1592 72.4762 13.1592C72.8346 13.1592 73.1418 13.2104 73.2698 13.236ZM77.9248 25.78H74.9808V13.3128H77.9248V25.78ZM74.52 8.93522C74.52 7.86002 75.3904 6.98962 76.44 6.98962C77.5152 6.98962 78.3856 7.86002 78.3856 8.93522C78.3856 10.0104 77.5152 10.8552 76.44 10.8552C75.3904 10.8552 74.52 10.0104 74.52 8.93522ZM86.4662 23.5016C88.3094 23.5016 89.9478 22.1448 89.9478 19.5336C89.9478 16.948 88.3094 15.6168 86.4662 15.6168C84.6486 15.6168 82.9846 16.948 82.9846 19.5336C82.9846 22.1192 84.6486 23.5016 86.4662 23.5016ZM86.4662 12.9288C90.2038 12.9288 92.943 15.7192 92.943 19.5336C92.943 23.3736 90.2038 26.164 86.4662 26.164C82.7542 26.164 80.015 23.3736 80.015 19.5336C80.015 15.7192 82.7542 12.9288 86.4662 12.9288Z" fill="black"/>
</svg>
