<svg width="115" height="33" viewBox="0 0 115 33" fill="none" xmlns="http://www.w3.org/2000/svg">
<path d="M10.8607 9.68482C11.0438 9.609 11.2397 9.74729 11.2397 9.94542V18.4869C11.2397 18.9581 11.6218 19.3402 12.0931 19.3402H15.5064C15.9777 19.3402 16.3597 18.9581 16.3597 18.4869V9.94542C16.3597 9.74729 16.5557 9.609 16.7387 9.68482C17.4071 9.96169 18.0317 10.331 18.5947 10.7809C18.9628 11.0752 19.5005 11.0795 19.8337 10.7462L22.2473 8.33265C22.5806 7.9994 22.5823 7.4567 22.2276 7.14639C21.1798 6.2297 19.9879 5.4888 18.6981 4.95456C17.1451 4.3113 15.4807 3.98022 13.7997 3.98022C12.1188 3.98022 10.4544 4.3113 8.90141 4.95456C7.61163 5.48881 6.41972 6.2297 5.37186 7.1464C5.01715 7.4567 5.01895 7.9994 5.35219 8.33265L7.76579 10.7462C8.09903 11.0795 8.63669 11.0752 9.00483 10.7809C9.56776 10.331 10.1924 9.96169 10.8607 9.68482Z" fill="black"/>
<path d="M22.3331 16.7802C21.8618 16.7802 21.4846 17.1635 21.4324 17.6318C21.2401 19.3554 20.4684 20.9727 19.2303 22.2108C17.79 23.6511 15.8366 24.4602 13.7997 24.4602C11.7629 24.4602 9.80944 23.6511 8.36916 22.2108C7.13105 20.9727 6.35934 19.3554 6.16708 17.6318C6.11483 17.1635 5.73769 16.7802 5.2664 16.7802H1.85307C1.38179 16.7802 0.996779 17.1628 1.02816 17.633C1.23392 20.7163 2.55012 23.6325 4.74878 25.8312C7.14925 28.2316 10.405 29.5802 13.7997 29.5802C17.1945 29.5802 20.4502 28.2316 22.8507 25.8312C25.0494 23.6325 26.3656 20.7163 26.5713 17.633C26.6027 17.1628 26.2177 16.7802 25.7464 16.7802H22.3331Z" fill="black"/>
<path d="M36.7124 20.3016V19.124L39.7076 18.5096V20.1992C39.7076 22.324 40.9108 23.2712 42.498 23.2712C44.1364 23.2712 45.1604 22.1704 45.1604 20.3272V7.62961H48.2324V20.2504C48.2324 23.476 45.9796 26.164 42.5236 26.164C38.9652 26.164 36.7124 23.8344 36.7124 20.3016ZM50.5344 22.4008C50.5344 20.1736 52.1728 18.9448 54.2976 18.6376L57.4976 18.1512C58.2144 18.0488 58.4192 17.6904 58.4192 17.2552C58.4192 16.2056 57.7024 15.3608 56.064 15.3608C54.5024 15.3608 53.632 16.3592 53.504 17.6136L50.7904 16.9992C51.0208 14.8488 52.9664 12.9288 56.0384 12.9288C59.8784 12.9288 61.3376 15.1048 61.3376 17.588V23.7832C61.3376 24.9096 61.4656 25.652 61.4912 25.78H58.7264C58.7008 25.7032 58.5984 25.1912 58.5984 24.1928C58.0096 25.14 56.7808 26.164 54.7584 26.164C52.1472 26.164 50.5344 24.372 50.5344 22.4008ZM55.3216 23.8344C56.9856 23.8344 58.4192 23.0408 58.4192 20.6088V20.0456L55.168 20.532C54.2464 20.6856 53.504 21.1976 53.504 22.2216C53.504 23.0664 54.144 23.8344 55.3216 23.8344ZM67.1034 25.78H64.1594V13.3128H67.001V14.9C67.7178 13.62 69.2794 12.9544 70.6874 12.9544C72.3258 12.9544 73.7594 13.6968 74.425 15.156C75.3978 13.5176 76.857 12.9544 78.4698 12.9544C80.7226 12.9544 82.873 14.388 82.873 17.6904V25.78H80.0058V18.1768C80.0058 16.7176 79.2634 15.6168 77.5994 15.6168C76.0378 15.6168 75.0138 16.8456 75.0138 18.3816V25.78H72.0954V18.1768C72.0954 16.7432 71.3786 15.6168 69.689 15.6168C68.1018 15.6168 67.1034 16.7944 67.1034 18.3816V25.78ZM88.6342 25.78H85.7414V7.24561H88.6598V14.8488C89.223 13.876 90.6566 12.98 92.5766 12.98C96.3142 12.98 98.3366 15.8216 98.3366 19.4824C98.3366 23.2456 96.1094 26.0872 92.4742 26.0872C90.7078 26.0872 89.351 25.3192 88.6342 24.116V25.78ZM95.3414 19.508C95.3414 17.0248 93.959 15.6168 91.9878 15.6168C90.0934 15.6168 88.6342 17.0248 88.6342 19.508C88.6342 21.9656 90.0934 23.4504 91.9878 23.4504C93.9334 23.4504 95.3414 21.9656 95.3414 19.508ZM105.902 23.5016C107.745 23.5016 109.383 22.1448 109.383 19.5336C109.383 16.948 107.745 15.6168 105.902 15.6168C104.084 15.6168 102.42 16.948 102.42 19.5336C102.42 22.1192 104.084 23.5016 105.902 23.5016ZM105.902 12.9288C109.639 12.9288 112.379 15.7192 112.379 19.5336C112.379 23.3736 109.639 26.164 105.902 26.164C102.19 26.164 99.4506 23.3736 99.4506 19.5336C99.4506 15.7192 102.19 12.9288 105.902 12.9288Z" fill="black"/>
</svg>
