<svg width="103" height="33" viewBox="0 0 103 33" fill="none" xmlns="http://www.w3.org/2000/svg">
<path d="M10.2402 15.0735C10.2402 14.6022 10.6222 14.2202 11.0935 14.2202H24.7469C25.2181 14.2202 25.6002 14.6022 25.6002 15.0735V17.2069C25.6002 17.6781 25.2181 18.0602 24.7469 18.0602H17.8297C17.4496 18.0602 17.2592 18.5198 17.528 18.7886L24.9968 26.2573C25.33 26.5906 25.33 27.1309 24.9968 27.4641L23.4841 28.9768C23.1509 29.31 22.6106 29.31 22.2773 28.9768L14.8086 21.508C14.5398 21.2392 14.0802 21.4296 14.0802 21.8097V28.7269C14.0802 29.1981 13.6981 29.5802 13.2269 29.5802H11.0935C10.6222 29.5802 10.2402 29.1981 10.2402 28.7269V15.0735Z" fill="black"/>
<path d="M12.1493 3.98022C11.8018 3.98022 11.52 4.26198 11.52 4.60955V9.11088C11.52 9.45845 11.8018 9.74021 12.1493 9.74021H14.7307C15.0782 9.74021 15.36 9.45845 15.36 9.11088V4.60955C15.36 4.26198 15.0782 3.98022 14.7307 3.98022H12.1493Z" fill="black"/>
<path d="M5.13067 15.5002C5.47824 15.5002 5.76 15.782 5.76 16.1295V18.7109C5.76 19.0584 5.47824 19.3402 5.13067 19.3402H0.629333C0.281762 19.3402 0 19.0584 0 18.7109V16.1295C0 15.782 0.281762 15.5002 0.629333 15.5002H5.13067Z" fill="black"/>
<path d="M8.19803 9.45898C8.51493 9.77587 8.40797 10.3181 8.03342 10.5642C7.4568 10.9431 6.96268 11.4373 6.58381 12.0139C6.33771 12.3884 5.79546 12.4954 5.47857 12.1785L1.72485 8.42472C1.47908 8.17895 1.47908 7.78047 1.72485 7.5347L3.55429 5.70526C3.80006 5.45949 4.19853 5.45949 4.44431 5.70526L8.19803 9.45898Z" fill="black"/>
<path d="M45.4402 26.164C40.5506 26.164 36.2754 22.6312 36.2754 16.7176C36.2754 10.804 40.7042 7.24561 45.4146 7.24561C50.0226 7.24561 52.7618 9.9592 53.581 13.1336L50.6882 14.1064C50.1506 11.9048 48.461 10.1384 45.4146 10.1384C42.4194 10.1384 39.4242 12.3144 39.4242 16.7176C39.4242 20.9672 42.3426 23.22 45.4402 23.22C48.4866 23.22 50.2274 21.2744 50.8418 19.2264L53.6578 20.148C52.8386 23.22 50.0738 26.164 45.4402 26.164ZM59.216 30.8232H56.0416L59.0368 24.2952L53.712 13.3128H57.0656L60.6496 21.1976L64.0032 13.3128H67.152L59.216 30.8232ZM75.8552 13.236V16.2568C75.5224 16.2056 75.1896 16.18 74.8824 16.18C72.5784 16.18 71.5288 17.5112 71.5288 19.8408V25.78H68.5592V13.3128H71.452V15.3096C72.0408 13.9528 73.4232 13.1592 75.0616 13.1592C75.42 13.1592 75.7272 13.2104 75.8552 13.236ZM85.7064 24.3976C85.092 25.524 83.6328 26.1384 82.1736 26.1384C79.204 26.1384 77.4632 23.9368 77.4632 21.172V13.3128H80.4328V20.6344C80.4328 22.1704 81.1496 23.476 82.9416 23.476C84.6568 23.476 85.5528 22.324 85.5528 20.6856V13.3128H88.5224V23.5016C88.5224 24.5256 88.5992 25.3192 88.6504 25.78H85.8088C85.7576 25.4984 85.7064 24.9096 85.7064 24.3976ZM90.4974 22.4008L93.083 21.684C93.1854 22.8104 94.0302 23.8088 95.6174 23.8088C96.8462 23.8088 97.4862 23.1432 97.4862 22.3752C97.4862 21.7096 97.0254 21.1976 96.027 20.9928L94.1838 20.5832C91.9822 20.0968 90.8302 18.6632 90.8302 16.948C90.8302 14.772 92.827 12.9288 95.4126 12.9288C98.8942 12.9288 100.021 15.1816 100.225 16.4104L97.7166 17.1272C97.6142 16.4104 97.0766 15.2584 95.4126 15.2584C94.363 15.2584 93.6206 15.924 93.6206 16.692C93.6206 17.3576 94.107 17.844 94.875 17.9976L96.7694 18.3816C99.1246 18.8936 100.353 20.3272 100.353 22.1704C100.353 24.0648 98.8174 26.164 95.643 26.164C92.0334 26.164 90.651 23.8088 90.4974 22.4008Z" fill="black"/>
</svg>
