<svg width="96" height="33" viewBox="0 0 96 33" fill="none" xmlns="http://www.w3.org/2000/svg">
<path fill-rule="evenodd" clip-rule="evenodd" d="M11.8934 18.3865L20.8155 27.3086L18.5439 29.5802L11.8934 22.9297L9.03626 25.7869L6.76465 23.5153L11.8934 18.3865Z" fill="black"/>
<path fill-rule="evenodd" clip-rule="evenodd" d="M15.3965 18.6769L24.3186 9.75476L26.5902 12.0263L19.9397 18.6769L22.7969 21.534L20.5252 23.8057L15.3965 18.6769Z" fill="black"/>
<path fill-rule="evenodd" clip-rule="evenodd" d="M15.6868 15.1739L6.76465 6.25182L9.03626 3.98022L15.6868 10.6307L18.5439 7.77355L20.8155 10.0452L15.6868 15.1739Z" fill="black"/>
<path fill-rule="evenodd" clip-rule="evenodd" d="M12.1839 14.8835L3.26184 23.8056L0.990234 21.534L7.64075 14.8835L4.78357 12.0263L7.05517 9.75476L12.1839 14.8835Z" fill="black"/>
<path d="M49.5022 25.78L43.8446 17.9208L41.4382 20.5576V25.78H38.3662V7.62961H41.4382V16.3336L49.2462 7.62961H53.291L45.9438 15.6424L53.3678 25.78H49.5022ZM53.6492 22.4008C53.6492 20.1736 55.2876 18.9448 57.4124 18.6376L60.6124 18.1512C61.3292 18.0488 61.534 17.6904 61.534 17.2552C61.534 16.2056 60.8172 15.3608 59.1788 15.3608C57.6172 15.3608 56.7468 16.3592 56.6188 17.6136L53.9052 16.9992C54.1356 14.8488 56.0812 12.9288 59.1532 12.9288C62.9932 12.9288 64.4524 15.1048 64.4524 17.588V23.7832C64.4524 24.9096 64.5804 25.652 64.606 25.78H61.8412C61.8156 25.7032 61.7132 25.1912 61.7132 24.1928C61.1244 25.14 59.8956 26.164 57.8732 26.164C55.262 26.164 53.6492 24.372 53.6492 22.4008ZM58.4364 23.8344C60.1004 23.8344 61.534 23.0408 61.534 20.6088V20.0456L58.2828 20.532C57.3612 20.6856 56.6188 21.1976 56.6188 22.2216C56.6188 23.0664 57.2588 23.8344 58.4364 23.8344ZM69.246 19.508C69.246 21.8888 70.5772 23.476 72.5996 23.476C74.5452 23.476 75.902 21.8632 75.902 19.4824C75.902 17.1016 74.5708 15.6168 72.6252 15.6168C70.6796 15.6168 69.246 17.1272 69.246 19.508ZM78.7692 7.24561V23.5016C78.7692 24.628 78.8716 25.5752 78.8972 25.78H76.0556C76.0044 25.4984 75.9276 24.6792 75.9276 24.1672C75.3388 25.2168 74.0332 26.0872 72.2668 26.0872C68.6828 26.0872 66.2764 23.2712 66.2764 19.508C66.2764 15.924 68.7084 12.98 72.2156 12.98C74.3916 12.98 75.4924 13.9784 75.8764 14.772V7.24561H78.7692ZM89.9214 24.3976C89.307 25.524 87.8478 26.1384 86.3886 26.1384C83.419 26.1384 81.6782 23.9368 81.6782 21.172V13.3128H84.6478V20.6344C84.6478 22.1704 85.3646 23.476 87.1566 23.476C88.8718 23.476 89.7678 22.324 89.7678 20.6856V13.3128H92.7374V23.5016C92.7374 24.5256 92.8142 25.3192 92.8654 25.78H90.0238C89.9726 25.4984 89.9214 24.9096 89.9214 24.3976Z" fill="black"/>
</svg>
